<?xml version="1.0" encoding="utf-8"?>
<!-- Generator: Adobe Illustrator 24.2.1, SVG Export Plug-In . SVG Version: 6.00 Build 0)  -->
<svg version="1.1" id="Layer_1" xmlns="http://www.w3.org/2000/svg" xmlns:xlink="http://www.w3.org/1999/xlink" x="0px" y="0px"
	 viewBox="0 0 250 250" style="enable-background:new 0 0 250 250;" xml:space="preserve">
<style type="text/css">
	.st0{fill:#FF4000;}
</style>
<g>
	<path class="st0" d="M0,132.32c0-4.88,0-9.77,0-14.65c0.14-0.63,0.36-1.25,0.4-1.88c1.18-17.53,5.8-34.12,14.28-49.47
		c19.45-35.2,48.98-56.76,88.55-64.35C108,1.06,112.86,0.65,117.67,0c4.88,0,9.77,0,14.65,0c0.7,0.14,1.4,0.37,2.11,0.42
		c17.44,1.22,33.96,5.83,49.23,14.27c35.2,19.45,56.76,48.98,64.36,88.54c0.92,4.77,1.33,9.63,1.98,14.45c0,4.88,0,9.77,0,14.65
		c-0.14,0.63-0.36,1.25-0.4,1.88c-1.19,17.53-5.81,34.12-14.29,49.47c-19.45,35.2-48.98,56.76-88.55,64.35
		c-4.76,0.91-9.62,1.33-14.43,1.97c-4.88,0-9.77,0-14.65,0c-0.7-0.14-1.4-0.37-2.11-0.42c-17.44-1.22-33.96-5.83-49.23-14.27
		c-35.2-19.45-56.76-48.98-64.36-88.54C1.05,142,0.64,137.13,0,132.32z M201.4,178.69c27.19-37.5,22.97-92.52-16.42-125.57
		c-36.46-30.59-85.06-26.41-113.64-4.3C114.64,92.08,157.96,135.32,201.4,178.69z M178.43,201.52
		c-43.44-43.37-86.79-86.66-130.09-129.9c-26.32,36.65-22.1,87.62,10.93,120.03C94.58,226.28,145.68,225.71,178.43,201.52z"/>
</g>
</svg>
