<?xml version="1.0" encoding="utf-8"?>
<!-- Generator: Adobe Illustrator 24.2.1, SVG Export Plug-In . SVG Version: 6.00 Build 0)  -->
<svg version="1.1" id="Layer_1" xmlns="http://www.w3.org/2000/svg" xmlns:xlink="http://www.w3.org/1999/xlink" x="0px" y="0px"
	 viewBox="0 0 102 192" style="enable-background:new 0 0 102 192;" xml:space="preserve">
<style type="text/css">
	.st0{fill:#FFC803;}
	.st1{fill:none;}
</style>
<g>
	<g>
		<path class="st0" d="M78.4,30H23.6c-3.5,0-3.5,6,0,6h54.8C81.9,36,81.9,30,78.4,30z"/>
		<path class="st0" d="M78.4,39H23.6c-3.5,0-3.5,6,0,6h54.8C81.9,45,81.9,39,78.4,39z"/>
		<path class="st0" d="M78.4,21H23.6c-3.5,0-3.5,6,0,6h54.8C81.9,27,81.9,21,78.4,21z"/>
	</g>
	<path class="st0" d="M22,104.2V87.8c0-1-6-1-6,0v16.4C16,105.3,22,105.3,22,104.2z"/>
	<path class="st1" d="M89,191H13c-6.6,0-12-5.4-12-12V13C1,6.4,6.4,1,13,1h76c6.6,0,12,5.4,12,12v166C101,185.6,95.6,191,89,191z"/>
</g>
</svg>
