<?xml version="1.0" encoding="utf-8"?>
<!-- Generator: Adobe Illustrator 24.2.1, SVG Export Plug-In . SVG Version: 6.00 Build 0)  -->
<svg version="1.1" id="Layer_1" xmlns="http://www.w3.org/2000/svg" xmlns:xlink="http://www.w3.org/1999/xlink" x="0px" y="0px"
	 viewBox="0 0 250 60" style="enable-background:new 0 0 250 60;" xml:space="preserve">
<style type="text/css">
	.st0{enable-background:new    ;}
	.st1{fill:#424242;}
	.st2{fill:#FFC803;}
</style>
<g class="st0">
	<path class="st1" d="M15.97,44.77v-35h5v30.65h18.95v4.35H15.97z"/>
	<path class="st1" d="M55.97,45.07c-2.67,0-5.03-0.58-7.1-1.75c-2.07-1.17-3.7-2.77-4.9-4.83c-1.2-2.05-1.8-4.38-1.8-6.97
		c0-2.63,0.6-4.97,1.8-7c1.2-2.03,2.83-3.63,4.9-4.78c2.07-1.15,4.43-1.72,7.1-1.72c2.63,0,4.99,0.58,7.08,1.72
		c2.08,1.15,3.72,2.73,4.9,4.75c1.18,2.02,1.77,4.36,1.77,7.02c0,2.63-0.59,4.97-1.77,7c-1.18,2.03-2.82,3.63-4.9,4.8
		C60.97,44.49,58.61,45.07,55.97,45.07z M55.97,40.87c1.7,0,3.23-0.38,4.58-1.15s2.41-1.86,3.17-3.28c0.77-1.42,1.15-3.06,1.15-4.92
		c0-1.9-0.38-3.54-1.15-4.92c-0.77-1.38-1.82-2.46-3.17-3.23c-1.35-0.77-2.88-1.15-4.58-1.15c-1.7,0-3.22,0.38-4.55,1.15
		c-1.33,0.77-2.4,1.84-3.2,3.23c-0.8,1.38-1.2,3.02-1.2,4.92c0,1.87,0.4,3.51,1.2,4.92c0.8,1.42,1.87,2.51,3.2,3.28
		C52.76,40.49,54.27,40.87,55.97,40.87z"/>
	<path class="st1" d="M87.92,45.07c-2.7,0-5.11-0.58-7.23-1.75c-2.12-1.17-3.77-2.77-4.98-4.8c-1.2-2.03-1.8-4.37-1.8-7
		c0-2.63,0.6-4.97,1.8-7c1.2-2.03,2.86-3.63,4.98-4.78c2.12-1.15,4.52-1.72,7.23-1.72c2.4,0,4.54,0.47,6.42,1.42
		c1.88,0.95,3.34,2.36,4.38,4.23l-3.65,2.35c-0.87-1.3-1.92-2.26-3.17-2.88c-1.25-0.62-2.59-0.92-4.03-0.92
		c-1.73,0-3.28,0.38-4.65,1.15c-1.37,0.77-2.45,1.84-3.25,3.23c-0.8,1.38-1.2,3.02-1.2,4.92c0,1.9,0.4,3.55,1.2,4.95
		c0.8,1.4,1.88,2.48,3.25,3.25c1.37,0.77,2.92,1.15,4.65,1.15c1.43,0,2.78-0.31,4.03-0.92c1.25-0.62,2.31-1.58,3.17-2.88l3.65,2.3
		c-1.03,1.83-2.49,3.24-4.38,4.23C92.47,44.58,90.32,45.07,87.92,45.07z"/>
	<path class="st1" d="M104.58,44.77V7.67h4.8v37.1H104.58z M108.48,38.37l0.1-6.15l15.25-13.95h5.8l-11.7,11.5l-2.6,2.2
		L108.48,38.37z M124.83,44.77l-10.4-12.9l3.1-3.85l13.2,16.75H124.83z"/>
</g>
<g class="st0">
	<path class="st2" d="M147.88,45.07c-2.83,0-5.33-0.58-7.48-1.75c-2.15-1.17-3.82-2.77-5-4.8c-1.18-2.03-1.77-4.37-1.77-7
		c0-2.63,0.57-4.97,1.72-7s2.73-3.63,4.75-4.78c2.02-1.15,4.29-1.72,6.83-1.72c2.57,0,4.83,0.57,6.8,1.7
		c1.97,1.13,3.51,2.72,4.63,4.77c1.12,2.05,1.67,4.44,1.67,7.18c0,0.2-0.01,0.43-0.02,0.7c-0.02,0.27-0.04,0.52-0.08,0.75h-22.55
		v-3.45h20.05l-1.95,1.2c0.03-1.7-0.32-3.22-1.05-4.55c-0.73-1.33-1.74-2.38-3.03-3.13s-2.77-1.13-4.47-1.13
		c-1.67,0-3.15,0.38-4.45,1.13s-2.32,1.8-3.05,3.15c-0.73,1.35-1.1,2.89-1.1,4.62v0.8c0,1.77,0.41,3.34,1.23,4.72
		c0.82,1.38,1.96,2.46,3.42,3.23s3.15,1.15,5.05,1.15c1.57,0,2.99-0.27,4.28-0.8c1.28-0.53,2.41-1.33,3.38-2.4l2.65,3.1
		c-1.2,1.4-2.69,2.47-4.47,3.2S150.07,45.07,147.88,45.07z"/>
	<path class="st2" d="M162.88,22.23v-3.95h16.9v3.95H162.88z M175.77,45.07c-2.67,0-4.73-0.72-6.2-2.15
		c-1.47-1.43-2.2-3.48-2.2-6.15v-24.3h4.8v24.1c0,1.43,0.36,2.53,1.08,3.3c0.72,0.77,1.74,1.15,3.08,1.15c1.5,0,2.75-0.42,3.75-1.25
		l1.5,3.45c-0.73,0.63-1.61,1.1-2.63,1.4C177.93,44.92,176.88,45.07,175.77,45.07z"/>
	<path class="st2" d="M198.27,45.07c-2.83,0-5.33-0.58-7.47-1.75c-2.15-1.17-3.82-2.77-5-4.8c-1.18-2.03-1.78-4.37-1.78-7
		c0-2.63,0.58-4.97,1.73-7c1.15-2.03,2.73-3.63,4.75-4.78c2.02-1.15,4.29-1.72,6.82-1.72c2.57,0,4.83,0.57,6.8,1.7
		c1.97,1.13,3.51,2.72,4.63,4.77c1.12,2.05,1.67,4.44,1.67,7.18c0,0.2-0.01,0.43-0.03,0.7c-0.02,0.27-0.04,0.52-0.08,0.75h-22.55
		v-3.45h20.05l-1.95,1.2c0.03-1.7-0.32-3.22-1.05-4.55c-0.73-1.33-1.74-2.38-3.02-3.13c-1.28-0.75-2.78-1.13-4.48-1.13
		c-1.67,0-3.15,0.38-4.45,1.13c-1.3,0.75-2.32,1.8-3.05,3.15c-0.73,1.35-1.1,2.89-1.1,4.62v0.8c0,1.77,0.41,3.34,1.22,4.72
		c0.82,1.38,1.96,2.46,3.43,3.23c1.47,0.77,3.15,1.15,5.05,1.15c1.57,0,2.99-0.27,4.27-0.8c1.28-0.53,2.41-1.33,3.38-2.4l2.65,3.1
		c-1.2,1.4-2.69,2.47-4.47,3.2C202.47,44.71,200.47,45.07,198.27,45.07z"/>
	<path class="st2" d="M228.63,45.07c-2.7,0-5.11-0.58-7.23-1.75c-2.12-1.17-3.77-2.77-4.97-4.8s-1.8-4.37-1.8-7
		c0-2.63,0.6-4.97,1.8-7s2.86-3.63,4.97-4.78c2.12-1.15,4.53-1.72,7.23-1.72c2.4,0,4.54,0.47,6.42,1.42
		c1.88,0.95,3.34,2.36,4.38,4.23l-3.65,2.35c-0.87-1.3-1.92-2.26-3.17-2.88c-1.25-0.62-2.59-0.92-4.03-0.92
		c-1.73,0-3.28,0.38-4.65,1.15c-1.37,0.77-2.45,1.84-3.25,3.23c-0.8,1.38-1.2,3.02-1.2,4.92c0,1.9,0.4,3.55,1.2,4.95
		c0.8,1.4,1.88,2.48,3.25,3.25c1.37,0.77,2.92,1.15,4.65,1.15c1.43,0,2.78-0.31,4.03-0.92c1.25-0.62,2.31-1.58,3.17-2.88l3.65,2.3
		c-1.03,1.83-2.49,3.24-4.38,4.23C233.17,44.58,231.02,45.07,228.63,45.07z"/>
</g>
</svg>
