<?xml version="1.0" encoding="utf-8"?>
<!-- Generator: Adobe Illustrator 24.2.1, SVG Export Plug-In . SVG Version: 6.00 Build 0)  -->
<svg version="1.1" id="Layer_1" xmlns="http://www.w3.org/2000/svg" xmlns:xlink="http://www.w3.org/1999/xlink" x="0px" y="0px"
	 viewBox="0 0 400 60" style="enable-background:new 0 0 400 60;" xml:space="preserve">
<style type="text/css">
	.st0{enable-background:new    ;}
	.st1{fill:#424242;}
	.st2{fill:#FFC803;}
	.st3{fill:#F5F5F5;}
</style>
<g>
	<g>
		<g class="st0">
			<path class="st1" d="M14.35,44.77v-35h5v30.65H38.3v4.35C38.3,44.77,14.35,44.77,14.35,44.77z"/>
			<path class="st1" d="M54.35,45.07c-2.67,0-5.03-0.58-7.1-1.75s-3.7-2.77-4.9-4.83c-1.2-2.05-1.8-4.38-1.8-6.97
				c0-2.63,0.6-4.97,1.8-7s2.83-3.63,4.9-4.78c2.07-1.15,4.43-1.72,7.1-1.72c2.63,0,4.99,0.58,7.08,1.72
				c2.08,1.15,3.72,2.73,4.9,4.75s1.77,4.36,1.77,7.02c0,2.63-0.59,4.97-1.77,7s-2.82,3.63-4.9,4.8
				C59.34,44.49,56.99,45.07,54.35,45.07z M54.35,40.87c1.7,0,3.23-0.38,4.58-1.15s2.41-1.86,3.17-3.28
				c0.77-1.42,1.15-3.06,1.15-4.92c0-1.9-0.38-3.54-1.15-4.92c-0.77-1.38-1.82-2.46-3.17-3.23s-2.88-1.15-4.58-1.15
				s-3.22,0.38-4.55,1.15c-1.33,0.77-2.4,1.84-3.2,3.23c-0.8,1.38-1.2,3.02-1.2,4.92c0,1.87,0.4,3.51,1.2,4.92
				c0.8,1.42,1.87,2.51,3.2,3.28C51.14,40.49,52.65,40.87,54.35,40.87z"/>
			<path class="st1" d="M86.3,45.07c-2.7,0-5.11-0.58-7.23-1.75s-3.77-2.77-4.98-4.8c-1.2-2.03-1.8-4.37-1.8-7s0.6-4.97,1.8-7
				c1.2-2.03,2.86-3.63,4.98-4.78s4.52-1.72,7.23-1.72c2.4,0,4.54,0.47,6.42,1.42s3.34,2.36,4.38,4.23l-3.65,2.35
				c-0.87-1.3-1.92-2.26-3.17-2.88s-2.59-0.92-4.03-0.92c-1.73,0-3.28,0.38-4.65,1.15s-2.45,1.84-3.25,3.23
				c-0.8,1.38-1.2,3.02-1.2,4.92s0.4,3.55,1.2,4.95c0.8,1.4,1.88,2.48,3.25,3.25s2.92,1.15,4.65,1.15c1.43,0,2.78-0.31,4.03-0.92
				c1.25-0.62,2.31-1.58,3.17-2.88l3.65,2.3c-1.03,1.83-2.49,3.24-4.38,4.23C90.84,44.58,88.7,45.07,86.3,45.07z"/>
			<path class="st1" d="M102.95,44.77V7.67h4.8v37.1C107.75,44.77,102.95,44.77,102.95,44.77z M106.85,38.37l0.1-6.15l15.25-13.95
				h5.8l-11.7,11.5l-2.6,2.2L106.85,38.37z M123.2,44.77l-10.4-12.9l3.1-3.85l13.2,16.75H123.2z"/>
		</g>
		<g class="st0">
			<path class="st2" d="M146.25,45.07c-2.83,0-5.33-0.58-7.48-1.75s-3.82-2.77-5-4.8s-1.77-4.37-1.77-7s0.57-4.97,1.73-7
				c1.15-2.03,2.73-3.63,4.75-4.78s4.29-1.72,6.82-1.72c2.57,0,4.83,0.57,6.8,1.7c1.97,1.13,3.51,2.72,4.63,4.77
				c1.12,2.05,1.67,4.44,1.67,7.18c0,0.2-0.01,0.43-0.02,0.7c-0.02,0.27-0.04,0.52-0.08,0.75h-22.55v-3.45h20.05l-1.95,1.2
				c0.03-1.7-0.32-3.22-1.05-4.55s-1.74-2.38-3.02-3.13s-2.77-1.13-4.48-1.13c-1.67,0-3.15,0.38-4.45,1.13s-2.32,1.8-3.05,3.15
				s-1.1,2.89-1.1,4.63v0.8c0,1.77,0.41,3.34,1.23,4.72c0.82,1.38,1.96,2.46,3.43,3.23c1.47,0.77,3.15,1.15,5.05,1.15
				c1.57,0,2.99-0.27,4.27-0.8s2.41-1.33,3.38-2.4l2.65,3.1c-1.2,1.4-2.69,2.47-4.47,3.2C150.44,44.71,148.45,45.07,146.25,45.07z"
				/>
			<path class="st2" d="M161.25,22.23v-3.95h16.9v3.95H161.25z M174.15,45.07c-2.67,0-4.73-0.72-6.2-2.15s-2.2-3.48-2.2-6.15v-24.3
				h4.8v24.1c0,1.43,0.36,2.53,1.08,3.3s1.74,1.15,3.08,1.15c1.5,0,2.75-0.42,3.75-1.25l1.5,3.45c-0.73,0.63-1.61,1.1-2.63,1.4
				C176.31,44.92,175.25,45.07,174.15,45.07z"/>
			<path class="st2" d="M196.65,45.07c-2.83,0-5.33-0.58-7.48-1.75s-3.82-2.77-5-4.8s-1.77-4.37-1.77-7s0.57-4.97,1.73-7
				c1.15-2.03,2.73-3.63,4.75-4.78s4.29-1.72,6.82-1.72c2.57,0,4.83,0.57,6.8,1.7c1.97,1.13,3.51,2.72,4.63,4.77
				c1.12,2.05,1.67,4.44,1.67,7.18c0,0.2-0.01,0.43-0.03,0.7s-0.04,0.52-0.08,0.75h-22.55v-3.45h20.05l-1.95,1.2
				c0.03-1.7-0.32-3.22-1.05-4.55s-1.74-2.38-3.02-3.13s-2.77-1.13-4.48-1.13c-1.67,0-3.15,0.38-4.45,1.13s-2.32,1.8-3.05,3.15
				s-1.1,2.89-1.1,4.63v0.8c0,1.77,0.41,3.34,1.23,4.72c0.82,1.38,1.96,2.46,3.43,3.23c1.47,0.77,3.15,1.15,5.05,1.15
				c1.57,0,2.99-0.27,4.27-0.8s2.41-1.33,3.38-2.4l2.65,3.1c-1.2,1.4-2.69,2.47-4.47,3.2C200.84,44.71,198.85,45.07,196.65,45.07z"
				/>
			<path class="st2" d="M227,45.07c-2.7,0-5.11-0.58-7.23-1.75s-3.77-2.77-4.97-4.8s-1.8-4.37-1.8-7s0.6-4.97,1.8-7
				s2.86-3.63,4.97-4.78c2.12-1.15,4.53-1.72,7.23-1.72c2.4,0,4.54,0.47,6.42,1.42s3.34,2.36,4.38,4.23l-3.65,2.35
				c-0.87-1.3-1.92-2.26-3.17-2.88s-2.59-0.92-4.03-0.92c-1.73,0-3.28,0.38-4.65,1.15s-2.45,1.84-3.25,3.23
				c-0.8,1.38-1.2,3.02-1.2,4.92s0.4,3.55,1.2,4.95c0.8,1.4,1.88,2.48,3.25,3.25s2.92,1.15,4.65,1.15c1.43,0,2.78-0.31,4.03-0.92
				c1.25-0.62,2.31-1.58,3.17-2.88l3.65,2.3c-1.03,1.83-2.49,3.24-4.38,4.23C231.54,44.58,229.4,45.07,227,45.07z"/>
		</g>
	</g>
	<g>
		<path class="st3" d="M286.35,45.07c-1.97,0-3.69-0.33-5.17-1s-2.63-1.59-3.42-2.77c-0.8-1.18-1.2-2.53-1.2-4.03
			c0-1.43,0.34-2.73,1.03-3.9c0.68-1.17,1.8-2.1,3.35-2.8s3.64-1.05,6.28-1.05h8.4v3.45h-8.2c-2.4,0-4.02,0.4-4.85,1.2
			s-1.25,1.77-1.25,2.9c0,1.3,0.52,2.34,1.55,3.13c1.03,0.78,2.47,1.18,4.3,1.18c1.8,0,3.38-0.4,4.72-1.2s2.33-1.97,2.92-3.5
			l0.95,3.3c-0.63,1.57-1.75,2.81-3.35,3.72C290.8,44.62,288.78,45.07,286.35,45.07z M295.05,44.77v-5.6l-0.25-1.05v-9.55
			c0-2.03-0.59-3.61-1.77-4.72c-1.18-1.12-2.96-1.68-5.33-1.68c-1.57,0-3.1,0.26-4.6,0.77c-1.5,0.52-2.77,1.21-3.8,2.08l-2-3.6
			c1.37-1.1,3.01-1.94,4.92-2.52c1.92-0.58,3.93-0.88,6.03-0.88c3.63,0,6.43,0.88,8.4,2.65s2.95,4.47,2.95,8.1v16
			C299.6,44.77,295.05,44.77,295.05,44.77z"/>
		<path class="st3" d="M319.45,45.07c-2.57,0-4.86-0.57-6.88-1.7s-3.61-2.72-4.77-4.75c-1.17-2.03-1.75-4.4-1.75-7.1
			s0.58-5.06,1.75-7.07c1.17-2.02,2.76-3.59,4.77-4.72c2.02-1.13,4.31-1.7,6.88-1.7c2.23,0,4.25,0.5,6.05,1.5s3.24,2.5,4.33,4.5
			s1.63,4.5,1.63,7.5s-0.52,5.5-1.58,7.5c-1.05,2-2.47,3.51-4.27,4.53S321.75,45.07,319.45,45.07z M319.85,40.88
			c1.67,0,3.17-0.38,4.52-1.15c1.35-0.77,2.42-1.86,3.2-3.28s1.17-3.06,1.17-4.92c0-1.9-0.39-3.54-1.17-4.92
			c-0.78-1.38-1.85-2.46-3.2-3.23s-2.86-1.15-4.52-1.15c-1.7,0-3.22,0.38-4.55,1.15s-2.4,1.84-3.2,3.23c-0.8,1.38-1.2,3.02-1.2,4.92
			c0,1.87,0.4,3.51,1.2,4.92c0.8,1.42,1.87,2.51,3.2,3.28C316.63,40.49,318.15,40.88,319.85,40.88z M328.9,44.77v-7.15l0.3-6.15
			l-0.5-6.15V7.67h4.8v37.1C333.5,44.77,328.9,44.77,328.9,44.77z"/>
		<path class="st3" d="M375.75,18.02c2.13,0,4.02,0.42,5.65,1.25s2.91,2.1,3.83,3.8c0.92,1.7,1.38,3.85,1.38,6.45v15.25h-4.8v-14.7
			c0-2.57-0.6-4.5-1.8-5.8s-2.88-1.95-5.05-1.95c-1.6,0-3,0.33-4.2,1s-2.13,1.65-2.78,2.95c-0.65,1.3-0.97,2.92-0.97,4.85v13.65
			h-4.8v-14.7c0-2.57-0.59-4.5-1.78-5.8c-1.18-1.3-2.88-1.95-5.08-1.95c-1.57,0-2.95,0.33-4.15,1c-1.2,0.67-2.13,1.65-2.8,2.95
			s-1,2.92-1,4.85v13.65h-4.8v-26.5h4.6v7.05l-0.75-1.8c0.83-1.73,2.12-3.08,3.85-4.05s3.75-1.45,6.05-1.45
			c2.53,0,4.72,0.63,6.55,1.88s3.03,3.14,3.6,5.67l-1.95-0.8c0.8-2.03,2.2-3.67,4.2-4.9C370.75,18.64,373.08,18.02,375.75,18.02z"/>
	</g>
	<rect x="254.25" y="7.71" class="st1" width="5" height="37"/>
</g>
</svg>
