<?xml version="1.0" encoding="utf-8"?>
<!-- Generator: Adobe Illustrator 24.2.1, SVG Export Plug-In . SVG Version: 6.00 Build 0)  -->
<svg version="1.1" id="Layer_1" xmlns="http://www.w3.org/2000/svg" xmlns:xlink="http://www.w3.org/1999/xlink" x="0px" y="0px"
	 viewBox="0 0 612 792" style="enable-background:new 0 0 612 792;" xml:space="preserve">
<style type="text/css">
	.st0{fill:#FFFFFF;stroke:#000000;stroke-width:16;stroke-linejoin:round;}
</style>
<g>
	<rect x="114.6" y="10.6" class="st0" width="382.9" height="770.7"/>
	<path d="M305.8,191.7c-28.4,0-56.8,0.1-85.2-0.1c-3.9,0-8.1-0.2-11.8-1.3c-9.6-3-16-12.9-15.3-22.6c0.8-10.1,8-18.4,17.9-20.5
		c2.2-0.5,4.4-0.7,6.7-0.7c58.6,0,117.2-0.1,175.7,0c17.7,0,28.8,14.4,23.5,29.9c-3.3,9.7-11.4,15.2-23.3,15.2
		C364.6,191.8,335.2,191.7,305.8,191.7z"/>
	<path d="M306,237.4c29.7,0,59.3-0.2,89,0.1c17.7,0.2,28.4,16.2,21.5,31.5c-4.6,10.2-13.1,13.6-23.7,13.6c-55.3-0.1-110.7,0-166,0
		c-3.2,0-6.5,0.1-9.7,0c-13.8-0.5-23.9-10.4-23.6-23c0.3-12.6,10-22,23.6-22.1C246.7,237.3,276.4,237.4,306,237.4z"/>
	<path d="M305.9,328.1c29.1,0,58.2,0,87.4,0c15.1,0,25.4,9.3,25.4,22.6c0,13.2-10.5,22.6-25.5,22.6c-58.5,0-117,0.1-175.5,0
		c-13.2,0-22.9-8.5-24.2-20.8c-1.1-10.4,6.3-20.9,16.9-23.6c2.9-0.7,5.9-0.7,8.9-0.7C248.1,328.1,277,328.1,305.9,328.1z"/>
	<path d="M373.8,531.4c0-14.6-0.1-29.1,0-43.7c0.1-13.6,9.4-23.5,21.9-23.8c12.3-0.3,22.7,9.7,22.8,23c0.3,30.1,0.3,60.2,0,90.3
		c-0.2,13.4-10.5,22.9-23.1,22.5c-12.3-0.4-21.4-10-21.5-23.2C373.7,561.5,373.8,546.5,373.8,531.4z"/>
</g>
</svg>
